<mxfile host="app.diagrams.net" modified="2024-02-05T15:41:04.539Z" agent="Mozilla/5.0 (Windows NT 10.0; Win64; x64) AppleWebKit/537.36 (KHTML, like Gecko) Chrome/121.0.0.0 Safari/537.36" etag="_JJi6fUkIjrSat0WVVSC" version="23.1.1" type="google">
  <diagram name="PÃ¡gina-1" id="nGEDPCmh6426wB8B8HbT">
    <mxGraphModel grid="1" page="1" gridSize="10" guides="1" tooltips="1" connect="1" arrows="1" fold="1" pageScale="1" pageWidth="827" pageHeight="1169" math="0" shadow="0">
      <root>
        <mxCell id="0" />
        <mxCell id="1" parent="0" />
        <mxCell id="nuA1FeX-N9PkUPxnQgA0-10" style="edgeStyle=none;shape=connector;rounded=0;orthogonalLoop=1;jettySize=auto;html=1;exitX=0.5;exitY=0;exitDx=0;exitDy=0;entryX=0;entryY=0.5;entryDx=0;entryDy=0;labelBackgroundColor=default;strokeColor=default;align=center;verticalAlign=middle;fontFamily=Helvetica;fontSize=11;fontColor=default;endArrow=none;endFill=0;" edge="1" parent="1" source="nuA1FeX-N9PkUPxnQgA0-1" target="nuA1FeX-N9PkUPxnQgA0-2">
          <mxGeometry relative="1" as="geometry" />
        </mxCell>
        <mxCell id="nuA1FeX-N9PkUPxnQgA0-13" style="edgeStyle=none;shape=connector;rounded=0;orthogonalLoop=1;jettySize=auto;html=1;exitX=0.5;exitY=1;exitDx=0;exitDy=0;entryX=0.5;entryY=0;entryDx=0;entryDy=0;labelBackgroundColor=default;strokeColor=default;align=center;verticalAlign=middle;fontFamily=Helvetica;fontSize=11;fontColor=default;endArrow=none;endFill=0;" edge="1" parent="1" source="nuA1FeX-N9PkUPxnQgA0-1" target="nuA1FeX-N9PkUPxnQgA0-12">
          <mxGeometry relative="1" as="geometry" />
        </mxCell>
        <mxCell id="nuA1FeX-N9PkUPxnQgA0-28" style="edgeStyle=none;shape=connector;rounded=0;orthogonalLoop=1;jettySize=auto;html=1;entryX=0;entryY=0.5;entryDx=0;entryDy=0;labelBackgroundColor=default;strokeColor=default;align=center;verticalAlign=middle;fontFamily=Helvetica;fontSize=11;fontColor=default;endArrow=none;endFill=0;" edge="1" parent="1" source="nuA1FeX-N9PkUPxnQgA0-1" target="nuA1FeX-N9PkUPxnQgA0-27">
          <mxGeometry relative="1" as="geometry" />
        </mxCell>
        <mxCell id="nuA1FeX-N9PkUPxnQgA0-1" value="PROGRAMAS" style="whiteSpace=wrap;html=1;align=center;" vertex="1" parent="1">
          <mxGeometry x="100" y="130" width="100" height="40" as="geometry" />
        </mxCell>
        <mxCell id="nuA1FeX-N9PkUPxnQgA0-7" style="rounded=0;orthogonalLoop=1;jettySize=auto;html=1;exitX=1;exitY=1;exitDx=0;exitDy=0;entryX=0;entryY=0.5;entryDx=0;entryDy=0;endArrow=none;endFill=0;" edge="1" parent="1" source="nuA1FeX-N9PkUPxnQgA0-2" target="nuA1FeX-N9PkUPxnQgA0-6">
          <mxGeometry relative="1" as="geometry" />
        </mxCell>
        <mxCell id="nuA1FeX-N9PkUPxnQgA0-9" style="edgeStyle=none;shape=connector;rounded=0;orthogonalLoop=1;jettySize=auto;html=1;exitX=1;exitY=0;exitDx=0;exitDy=0;entryX=0;entryY=1;entryDx=0;entryDy=0;labelBackgroundColor=default;strokeColor=default;align=center;verticalAlign=middle;fontFamily=Helvetica;fontSize=11;fontColor=default;endArrow=none;endFill=0;" edge="1" parent="1" source="nuA1FeX-N9PkUPxnQgA0-2" target="nuA1FeX-N9PkUPxnQgA0-5">
          <mxGeometry relative="1" as="geometry" />
        </mxCell>
        <mxCell id="nuA1FeX-N9PkUPxnQgA0-2" value="hora" style="ellipse;whiteSpace=wrap;html=1;align=center;" vertex="1" parent="1">
          <mxGeometry x="210" y="70" width="60" height="20" as="geometry" />
        </mxCell>
        <mxCell id="nuA1FeX-N9PkUPxnQgA0-11" style="edgeStyle=none;shape=connector;rounded=0;orthogonalLoop=1;jettySize=auto;html=1;exitX=0.5;exitY=0;exitDx=0;exitDy=0;entryX=0.25;entryY=1;entryDx=0;entryDy=0;labelBackgroundColor=default;strokeColor=default;align=center;verticalAlign=middle;fontFamily=Helvetica;fontSize=11;fontColor=default;endArrow=none;endFill=0;" edge="1" parent="1" source="nuA1FeX-N9PkUPxnQgA0-3" target="nuA1FeX-N9PkUPxnQgA0-1">
          <mxGeometry relative="1" as="geometry" />
        </mxCell>
        <mxCell id="nuA1FeX-N9PkUPxnQgA0-3" value="&lt;u&gt;nombre&lt;/u&gt;" style="ellipse;whiteSpace=wrap;html=1;align=center;" vertex="1" parent="1">
          <mxGeometry x="50" y="210" width="60" height="20" as="geometry" />
        </mxCell>
        <mxCell id="nuA1FeX-N9PkUPxnQgA0-5" value="inicio" style="ellipse;whiteSpace=wrap;html=1;align=center;" vertex="1" parent="1">
          <mxGeometry x="310" y="30" width="60" height="20" as="geometry" />
        </mxCell>
        <mxCell id="nuA1FeX-N9PkUPxnQgA0-6" value="fin" style="ellipse;whiteSpace=wrap;html=1;align=center;" vertex="1" parent="1">
          <mxGeometry x="300" y="80" width="60" height="20" as="geometry" />
        </mxCell>
        <mxCell id="nuA1FeX-N9PkUPxnQgA0-12" value="lista_presentadores" style="ellipse;shape=doubleEllipse;margin=3;whiteSpace=wrap;html=1;align=center;fontFamily=Helvetica;fontSize=11;fontColor=default;" vertex="1" parent="1">
          <mxGeometry x="140" y="205" width="130" height="30" as="geometry" />
        </mxCell>
        <mxCell id="nuA1FeX-N9PkUPxnQgA0-25" style="edgeStyle=none;shape=connector;rounded=0;orthogonalLoop=1;jettySize=auto;html=1;exitX=0.75;exitY=0;exitDx=0;exitDy=0;entryX=0;entryY=1;entryDx=0;entryDy=0;labelBackgroundColor=default;strokeColor=default;align=center;verticalAlign=middle;fontFamily=Helvetica;fontSize=11;fontColor=default;endArrow=none;endFill=0;" edge="1" parent="1" source="nuA1FeX-N9PkUPxnQgA0-16" target="nuA1FeX-N9PkUPxnQgA0-20">
          <mxGeometry relative="1" as="geometry" />
        </mxCell>
        <mxCell id="nuA1FeX-N9PkUPxnQgA0-26" style="edgeStyle=none;shape=connector;rounded=0;orthogonalLoop=1;jettySize=auto;html=1;exitX=1;exitY=0.25;exitDx=0;exitDy=0;entryX=0.5;entryY=0;entryDx=0;entryDy=0;labelBackgroundColor=default;strokeColor=default;align=center;verticalAlign=middle;fontFamily=Helvetica;fontSize=11;fontColor=default;endArrow=none;endFill=0;" edge="1" parent="1" source="nuA1FeX-N9PkUPxnQgA0-16" target="nuA1FeX-N9PkUPxnQgA0-19">
          <mxGeometry relative="1" as="geometry" />
        </mxCell>
        <mxCell id="nuA1FeX-N9PkUPxnQgA0-33" style="edgeStyle=none;shape=connector;rounded=0;orthogonalLoop=1;jettySize=auto;html=1;labelBackgroundColor=default;strokeColor=default;align=center;verticalAlign=middle;fontFamily=Helvetica;fontSize=11;fontColor=default;endArrow=none;endFill=0;entryX=0.5;entryY=0;entryDx=0;entryDy=0;" edge="1" parent="1" source="nuA1FeX-N9PkUPxnQgA0-16" target="nuA1FeX-N9PkUPxnQgA0-34">
          <mxGeometry relative="1" as="geometry">
            <mxPoint x="610" y="240" as="targetPoint" />
          </mxGeometry>
        </mxCell>
        <mxCell id="nuA1FeX-N9PkUPxnQgA0-16" value="NOTICIAS" style="whiteSpace=wrap;html=1;align=center;" vertex="1" parent="1">
          <mxGeometry x="560" y="130" width="100" height="40" as="geometry" />
        </mxCell>
        <mxCell id="nuA1FeX-N9PkUPxnQgA0-23" style="edgeStyle=none;shape=connector;rounded=0;orthogonalLoop=1;jettySize=auto;html=1;exitX=0.5;exitY=1;exitDx=0;exitDy=0;entryX=0.25;entryY=0;entryDx=0;entryDy=0;labelBackgroundColor=default;strokeColor=default;align=center;verticalAlign=middle;fontFamily=Helvetica;fontSize=11;fontColor=default;endArrow=none;endFill=0;" edge="1" parent="1" source="nuA1FeX-N9PkUPxnQgA0-17" target="nuA1FeX-N9PkUPxnQgA0-16">
          <mxGeometry relative="1" as="geometry" />
        </mxCell>
        <mxCell id="nuA1FeX-N9PkUPxnQgA0-17" value="&lt;u&gt;titulo&lt;/u&gt;" style="ellipse;whiteSpace=wrap;html=1;align=center;" vertex="1" parent="1">
          <mxGeometry x="480" y="80" width="60" height="20" as="geometry" />
        </mxCell>
        <mxCell id="nuA1FeX-N9PkUPxnQgA0-19" value="contenido" style="ellipse;whiteSpace=wrap;html=1;align=center;" vertex="1" parent="1">
          <mxGeometry x="740" y="158" width="60" height="20" as="geometry" />
        </mxCell>
        <mxCell id="nuA1FeX-N9PkUPxnQgA0-20" value="imagen" style="ellipse;whiteSpace=wrap;html=1;align=center;" vertex="1" parent="1">
          <mxGeometry x="660" y="90" width="60" height="20" as="geometry" />
        </mxCell>
        <mxCell id="nuA1FeX-N9PkUPxnQgA0-24" style="edgeStyle=none;shape=connector;rounded=0;orthogonalLoop=1;jettySize=auto;html=1;exitX=0.5;exitY=1;exitDx=0;exitDy=0;labelBackgroundColor=default;strokeColor=default;align=center;verticalAlign=middle;fontFamily=Helvetica;fontSize=11;fontColor=default;endArrow=none;endFill=0;" edge="1" parent="1" source="nuA1FeX-N9PkUPxnQgA0-21" target="nuA1FeX-N9PkUPxnQgA0-16">
          <mxGeometry relative="1" as="geometry" />
        </mxCell>
        <mxCell id="nuA1FeX-N9PkUPxnQgA0-21" value="resumen" style="ellipse;whiteSpace=wrap;html=1;align=center;" vertex="1" parent="1">
          <mxGeometry x="570" y="80" width="60" height="20" as="geometry" />
        </mxCell>
        <mxCell id="nuA1FeX-N9PkUPxnQgA0-29" style="edgeStyle=none;shape=connector;rounded=0;orthogonalLoop=1;jettySize=auto;html=1;entryX=0;entryY=0.5;entryDx=0;entryDy=0;labelBackgroundColor=default;strokeColor=default;align=center;verticalAlign=middle;fontFamily=Helvetica;fontSize=11;fontColor=default;endArrow=none;endFill=0;" edge="1" parent="1" source="nuA1FeX-N9PkUPxnQgA0-27" target="nuA1FeX-N9PkUPxnQgA0-16">
          <mxGeometry relative="1" as="geometry" />
        </mxCell>
        <mxCell id="nuA1FeX-N9PkUPxnQgA0-27" value="pertenece" style="shape=rhombus;perimeter=rhombusPerimeter;whiteSpace=wrap;html=1;align=center;fontFamily=Helvetica;fontSize=11;fontColor=default;" vertex="1" parent="1">
          <mxGeometry x="370" y="120" width="60" height="60" as="geometry" />
        </mxCell>
        <mxCell id="nuA1FeX-N9PkUPxnQgA0-30" value="1" style="text;html=1;align=center;verticalAlign=middle;resizable=0;points=[];autosize=1;strokeColor=none;fillColor=none;fontSize=11;fontFamily=Helvetica;fontColor=default;" vertex="1" parent="1">
          <mxGeometry x="300" y="130" width="30" height="30" as="geometry" />
        </mxCell>
        <mxCell id="nuA1FeX-N9PkUPxnQgA0-31" value="N" style="text;html=1;align=center;verticalAlign=middle;resizable=0;points=[];autosize=1;strokeColor=none;fillColor=none;fontSize=11;fontFamily=Helvetica;fontColor=default;" vertex="1" parent="1">
          <mxGeometry x="485" y="128" width="30" height="30" as="geometry" />
        </mxCell>
        <mxCell id="nuA1FeX-N9PkUPxnQgA0-39" style="edgeStyle=orthogonalEdgeStyle;shape=connector;rounded=0;orthogonalLoop=1;jettySize=auto;html=1;exitX=0.5;exitY=1;exitDx=0;exitDy=0;labelBackgroundColor=default;strokeColor=default;align=center;verticalAlign=middle;fontFamily=Helvetica;fontSize=11;fontColor=default;endArrow=none;endFill=0;entryX=0;entryY=0.5;entryDx=0;entryDy=0;" edge="1" parent="1" source="nuA1FeX-N9PkUPxnQgA0-32" target="nuA1FeX-N9PkUPxnQgA0-38">
          <mxGeometry relative="1" as="geometry">
            <mxPoint x="610" y="460" as="targetPoint" />
          </mxGeometry>
        </mxCell>
        <mxCell id="nuA1FeX-N9PkUPxnQgA0-32" value="CATEGORIAS" style="whiteSpace=wrap;html=1;align=center;" vertex="1" parent="1">
          <mxGeometry x="560" y="380" width="100" height="40" as="geometry" />
        </mxCell>
        <mxCell id="nuA1FeX-N9PkUPxnQgA0-35" style="edgeStyle=none;shape=connector;rounded=0;orthogonalLoop=1;jettySize=auto;html=1;exitX=0.5;exitY=1;exitDx=0;exitDy=0;entryX=0.5;entryY=0;entryDx=0;entryDy=0;labelBackgroundColor=default;strokeColor=default;align=center;verticalAlign=middle;fontFamily=Helvetica;fontSize=11;fontColor=default;endArrow=none;endFill=0;" edge="1" parent="1" source="nuA1FeX-N9PkUPxnQgA0-34" target="nuA1FeX-N9PkUPxnQgA0-32">
          <mxGeometry relative="1" as="geometry" />
        </mxCell>
        <mxCell id="nuA1FeX-N9PkUPxnQgA0-34" value="pertenece" style="shape=rhombus;perimeter=rhombusPerimeter;whiteSpace=wrap;html=1;align=center;fontFamily=Helvetica;fontSize=11;fontColor=default;" vertex="1" parent="1">
          <mxGeometry x="580" y="260" width="60" height="60" as="geometry" />
        </mxCell>
        <mxCell id="nuA1FeX-N9PkUPxnQgA0-36" value="N" style="text;html=1;align=center;verticalAlign=middle;resizable=0;points=[];autosize=1;strokeColor=none;fillColor=none;fontSize=11;fontFamily=Helvetica;fontColor=default;" vertex="1" parent="1">
          <mxGeometry x="605" y="198" width="30" height="30" as="geometry" />
        </mxCell>
        <mxCell id="nuA1FeX-N9PkUPxnQgA0-37" value="N" style="text;html=1;align=center;verticalAlign=middle;resizable=0;points=[];autosize=1;strokeColor=none;fillColor=none;fontSize=11;fontFamily=Helvetica;fontColor=default;" vertex="1" parent="1">
          <mxGeometry x="605" y="328" width="30" height="30" as="geometry" />
        </mxCell>
        <mxCell id="nuA1FeX-N9PkUPxnQgA0-40" style="edgeStyle=orthogonalEdgeStyle;shape=connector;rounded=0;orthogonalLoop=1;jettySize=auto;html=1;exitX=0.5;exitY=0;exitDx=0;exitDy=0;labelBackgroundColor=default;strokeColor=default;align=center;verticalAlign=middle;fontFamily=Helvetica;fontSize=11;fontColor=default;endArrow=none;endFill=0;entryX=1;entryY=0.5;entryDx=0;entryDy=0;" edge="1" parent="1" source="nuA1FeX-N9PkUPxnQgA0-38" target="nuA1FeX-N9PkUPxnQgA0-32">
          <mxGeometry relative="1" as="geometry">
            <mxPoint x="730" y="390" as="targetPoint" />
          </mxGeometry>
        </mxCell>
        <mxCell id="nuA1FeX-N9PkUPxnQgA0-42" value="N" style="edgeLabel;html=1;align=center;verticalAlign=middle;resizable=0;points=[];fontSize=11;fontFamily=Helvetica;fontColor=default;" connectable="0" vertex="1" parent="nuA1FeX-N9PkUPxnQgA0-40">
          <mxGeometry x="-0.0222" y="-2" relative="1" as="geometry">
            <mxPoint as="offset" />
          </mxGeometry>
        </mxCell>
        <mxCell id="nuA1FeX-N9PkUPxnQgA0-38" value="subcategoria" style="shape=rhombus;perimeter=rhombusPerimeter;whiteSpace=wrap;html=1;align=center;fontFamily=Helvetica;fontSize=11;fontColor=default;" vertex="1" parent="1">
          <mxGeometry x="690" y="420" width="80" height="60" as="geometry" />
        </mxCell>
        <mxCell id="nuA1FeX-N9PkUPxnQgA0-41" value="1" style="text;html=1;align=center;verticalAlign=middle;resizable=0;points=[];autosize=1;strokeColor=none;fillColor=none;fontSize=11;fontFamily=Helvetica;fontColor=default;" vertex="1" parent="1">
          <mxGeometry x="645" y="428" width="30" height="30" as="geometry" />
        </mxCell>
        <mxCell id="nuA1FeX-N9PkUPxnQgA0-45" style="edgeStyle=none;shape=connector;rounded=0;orthogonalLoop=1;jettySize=auto;html=1;entryX=0;entryY=0.5;entryDx=0;entryDy=0;labelBackgroundColor=default;strokeColor=default;align=center;verticalAlign=middle;fontFamily=Helvetica;fontSize=11;fontColor=default;endArrow=none;endFill=0;" edge="1" parent="1" source="nuA1FeX-N9PkUPxnQgA0-44" target="nuA1FeX-N9PkUPxnQgA0-32">
          <mxGeometry relative="1" as="geometry" />
        </mxCell>
        <mxCell id="nuA1FeX-N9PkUPxnQgA0-44" value="&lt;u&gt;nombre&lt;/u&gt;" style="ellipse;whiteSpace=wrap;html=1;align=center;" vertex="1" parent="1">
          <mxGeometry x="480" y="328" width="60" height="20" as="geometry" />
        </mxCell>
        <mxCell id="nuA1FeX-N9PkUPxnQgA0-49" style="edgeStyle=none;shape=connector;rounded=0;orthogonalLoop=1;jettySize=auto;html=1;exitX=0.5;exitY=0;exitDx=0;exitDy=0;entryX=0.25;entryY=1;entryDx=0;entryDy=0;labelBackgroundColor=default;strokeColor=default;align=center;verticalAlign=middle;fontFamily=Helvetica;fontSize=11;fontColor=default;endArrow=none;endFill=0;" edge="1" parent="1" source="nuA1FeX-N9PkUPxnQgA0-47" target="nuA1FeX-N9PkUPxnQgA0-32">
          <mxGeometry relative="1" as="geometry" />
        </mxCell>
        <mxCell id="nuA1FeX-N9PkUPxnQgA0-47" value="imagen" style="ellipse;whiteSpace=wrap;html=1;align=center;" vertex="1" parent="1">
          <mxGeometry x="545" y="510" width="60" height="20" as="geometry" />
        </mxCell>
        <mxCell id="nuA1FeX-N9PkUPxnQgA0-50" style="edgeStyle=none;shape=connector;rounded=0;orthogonalLoop=1;jettySize=auto;html=1;exitX=0.5;exitY=0;exitDx=0;exitDy=0;entryX=0;entryY=0.75;entryDx=0;entryDy=0;labelBackgroundColor=default;strokeColor=default;align=center;verticalAlign=middle;fontFamily=Helvetica;fontSize=11;fontColor=default;endArrow=none;endFill=0;" edge="1" parent="1" source="nuA1FeX-N9PkUPxnQgA0-48" target="nuA1FeX-N9PkUPxnQgA0-32">
          <mxGeometry relative="1" as="geometry" />
        </mxCell>
        <mxCell id="nuA1FeX-N9PkUPxnQgA0-48" value="descripcion" style="ellipse;whiteSpace=wrap;html=1;align=center;" vertex="1" parent="1">
          <mxGeometry x="440" y="500" width="60" height="20" as="geometry" />
        </mxCell>
        <mxCell id="nuA1FeX-N9PkUPxnQgA0-59" style="edgeStyle=none;shape=connector;rounded=0;orthogonalLoop=1;jettySize=auto;html=1;exitX=0.25;exitY=0;exitDx=0;exitDy=0;entryX=0.5;entryY=1;entryDx=0;entryDy=0;labelBackgroundColor=default;strokeColor=default;align=center;verticalAlign=middle;fontFamily=Helvetica;fontSize=11;fontColor=default;endArrow=none;endFill=0;" edge="1" parent="1" source="nuA1FeX-N9PkUPxnQgA0-51" target="nuA1FeX-N9PkUPxnQgA0-54">
          <mxGeometry relative="1" as="geometry" />
        </mxCell>
        <mxCell id="nuA1FeX-N9PkUPxnQgA0-60" style="edgeStyle=none;shape=connector;rounded=0;orthogonalLoop=1;jettySize=auto;html=1;exitX=0.75;exitY=0;exitDx=0;exitDy=0;entryX=0.5;entryY=1;entryDx=0;entryDy=0;labelBackgroundColor=default;strokeColor=default;align=center;verticalAlign=middle;fontFamily=Helvetica;fontSize=11;fontColor=default;endArrow=none;endFill=0;" edge="1" parent="1" source="nuA1FeX-N9PkUPxnQgA0-51" target="nuA1FeX-N9PkUPxnQgA0-56">
          <mxGeometry relative="1" as="geometry" />
        </mxCell>
        <mxCell id="nuA1FeX-N9PkUPxnQgA0-51" value="USUARIOS" style="whiteSpace=wrap;html=1;align=center;" vertex="1" parent="1">
          <mxGeometry x="100" y="410" width="100" height="40" as="geometry" />
        </mxCell>
        <mxCell id="nuA1FeX-N9PkUPxnQgA0-62" style="edgeStyle=none;shape=connector;rounded=0;orthogonalLoop=1;jettySize=auto;html=1;exitX=0.5;exitY=0;exitDx=0;exitDy=0;entryX=0.25;entryY=1;entryDx=0;entryDy=0;labelBackgroundColor=default;strokeColor=default;align=center;verticalAlign=middle;fontFamily=Helvetica;fontSize=11;fontColor=default;endArrow=none;endFill=0;" edge="1" parent="1" source="nuA1FeX-N9PkUPxnQgA0-52" target="nuA1FeX-N9PkUPxnQgA0-51">
          <mxGeometry relative="1" as="geometry" />
        </mxCell>
        <mxCell id="nuA1FeX-N9PkUPxnQgA0-52" value="&lt;u&gt;email&lt;/u&gt;" style="ellipse;whiteSpace=wrap;html=1;align=center;" vertex="1" parent="1">
          <mxGeometry x="40" y="480" width="60" height="20" as="geometry" />
        </mxCell>
        <mxCell id="nuA1FeX-N9PkUPxnQgA0-63" style="edgeStyle=none;shape=connector;rounded=0;orthogonalLoop=1;jettySize=auto;html=1;exitX=0.5;exitY=0;exitDx=0;exitDy=0;entryX=0.5;entryY=1;entryDx=0;entryDy=0;labelBackgroundColor=default;strokeColor=default;align=center;verticalAlign=middle;fontFamily=Helvetica;fontSize=11;fontColor=default;endArrow=none;endFill=0;" edge="1" parent="1" source="nuA1FeX-N9PkUPxnQgA0-53" target="nuA1FeX-N9PkUPxnQgA0-51">
          <mxGeometry relative="1" as="geometry" />
        </mxCell>
        <mxCell id="nuA1FeX-N9PkUPxnQgA0-53" value="password" style="ellipse;whiteSpace=wrap;html=1;align=center;" vertex="1" parent="1">
          <mxGeometry x="120" y="480" width="60" height="20" as="geometry" />
        </mxCell>
        <mxCell id="nuA1FeX-N9PkUPxnQgA0-54" value="fecha_registro" style="ellipse;whiteSpace=wrap;html=1;align=center;" vertex="1" parent="1">
          <mxGeometry x="20" y="348" width="120" height="20" as="geometry" />
        </mxCell>
        <mxCell id="nuA1FeX-N9PkUPxnQgA0-64" style="edgeStyle=none;shape=connector;rounded=0;orthogonalLoop=1;jettySize=auto;html=1;exitX=0.5;exitY=0;exitDx=0;exitDy=0;entryX=0.75;entryY=1;entryDx=0;entryDy=0;labelBackgroundColor=default;strokeColor=default;align=center;verticalAlign=middle;fontFamily=Helvetica;fontSize=11;fontColor=default;endArrow=none;endFill=0;" edge="1" parent="1" source="nuA1FeX-N9PkUPxnQgA0-55" target="nuA1FeX-N9PkUPxnQgA0-51">
          <mxGeometry relative="1" as="geometry" />
        </mxCell>
        <mxCell id="nuA1FeX-N9PkUPxnQgA0-55" value="avatar" style="ellipse;whiteSpace=wrap;html=1;align=center;" vertex="1" parent="1">
          <mxGeometry x="190" y="480" width="120" height="20" as="geometry" />
        </mxCell>
        <mxCell id="nuA1FeX-N9PkUPxnQgA0-56" value="username" style="ellipse;whiteSpace=wrap;html=1;align=center;" vertex="1" parent="1">
          <mxGeometry x="160" y="348" width="70" height="20" as="geometry" />
        </mxCell>
        <mxCell id="nuA1FeX-N9PkUPxnQgA0-65" value="COMENTARIO" style="whiteSpace=wrap;html=1;align=center;" vertex="1" parent="1">
          <mxGeometry x="355" y="288" width="100" height="40" as="geometry" />
        </mxCell>
        <mxCell id="nuA1FeX-N9PkUPxnQgA0-74" style="edgeStyle=none;shape=connector;rounded=0;orthogonalLoop=1;jettySize=auto;html=1;exitX=0.5;exitY=0;exitDx=0;exitDy=0;entryX=0.25;entryY=1;entryDx=0;entryDy=0;labelBackgroundColor=default;strokeColor=default;align=center;verticalAlign=middle;fontFamily=Helvetica;fontSize=11;fontColor=default;endArrow=none;endFill=0;" edge="1" parent="1" source="nuA1FeX-N9PkUPxnQgA0-66" target="nuA1FeX-N9PkUPxnQgA0-65">
          <mxGeometry relative="1" as="geometry" />
        </mxCell>
        <mxCell id="nuA1FeX-N9PkUPxnQgA0-66" value="&lt;u&gt;id&lt;/u&gt;" style="ellipse;whiteSpace=wrap;html=1;align=center;" vertex="1" parent="1">
          <mxGeometry x="330" y="360" width="60" height="20" as="geometry" />
        </mxCell>
        <mxCell id="nuA1FeX-N9PkUPxnQgA0-67" value="texto" style="ellipse;whiteSpace=wrap;html=1;align=center;" vertex="1" parent="1">
          <mxGeometry x="395" y="360" width="60" height="20" as="geometry" />
        </mxCell>
        <mxCell id="nuA1FeX-N9PkUPxnQgA0-69" style="edgeStyle=none;shape=connector;rounded=0;orthogonalLoop=1;jettySize=auto;html=1;exitX=1;exitY=0;exitDx=0;exitDy=0;entryX=0.25;entryY=1;entryDx=0;entryDy=0;labelBackgroundColor=default;strokeColor=default;align=center;verticalAlign=middle;fontFamily=Helvetica;fontSize=11;fontColor=default;endArrow=none;endFill=0;" edge="1" parent="1" source="nuA1FeX-N9PkUPxnQgA0-68" target="nuA1FeX-N9PkUPxnQgA0-16">
          <mxGeometry relative="1" as="geometry" />
        </mxCell>
        <mxCell id="nuA1FeX-N9PkUPxnQgA0-70" style="edgeStyle=none;shape=connector;rounded=0;orthogonalLoop=1;jettySize=auto;html=1;exitX=0;exitY=1;exitDx=0;exitDy=0;entryX=0.5;entryY=0;entryDx=0;entryDy=0;labelBackgroundColor=default;strokeColor=default;align=center;verticalAlign=middle;fontFamily=Helvetica;fontSize=11;fontColor=default;endArrow=none;endFill=0;" edge="1" parent="1" source="nuA1FeX-N9PkUPxnQgA0-68" target="nuA1FeX-N9PkUPxnQgA0-65">
          <mxGeometry relative="1" as="geometry" />
        </mxCell>
        <mxCell id="nuA1FeX-N9PkUPxnQgA0-68" value="pertenece" style="shape=rhombus;perimeter=rhombusPerimeter;whiteSpace=wrap;html=1;align=center;fontFamily=Helvetica;fontSize=11;fontColor=default;" vertex="1" parent="1">
          <mxGeometry x="455" y="210" width="60" height="60" as="geometry" />
        </mxCell>
        <mxCell id="nuA1FeX-N9PkUPxnQgA0-71" value="1" style="text;html=1;align=center;verticalAlign=middle;resizable=0;points=[];autosize=1;strokeColor=none;fillColor=none;fontSize=11;fontFamily=Helvetica;fontColor=default;" vertex="1" parent="1">
          <mxGeometry x="505" y="188" width="30" height="30" as="geometry" />
        </mxCell>
        <mxCell id="nuA1FeX-N9PkUPxnQgA0-72" value="N" style="text;html=1;align=center;verticalAlign=middle;resizable=0;points=[];autosize=1;strokeColor=none;fillColor=none;fontSize=11;fontFamily=Helvetica;fontColor=default;" vertex="1" parent="1">
          <mxGeometry x="410" y="250" width="30" height="30" as="geometry" />
        </mxCell>
        <mxCell id="nuA1FeX-N9PkUPxnQgA0-75" style="edgeStyle=none;shape=connector;rounded=0;orthogonalLoop=1;jettySize=auto;html=1;exitX=0.5;exitY=0;exitDx=0;exitDy=0;entryX=0.68;entryY=1;entryDx=0;entryDy=0;entryPerimeter=0;labelBackgroundColor=default;strokeColor=default;align=center;verticalAlign=middle;fontFamily=Helvetica;fontSize=11;fontColor=default;endArrow=none;endFill=0;" edge="1" parent="1" source="nuA1FeX-N9PkUPxnQgA0-67" target="nuA1FeX-N9PkUPxnQgA0-65">
          <mxGeometry relative="1" as="geometry" />
        </mxCell>
        <mxCell id="nuA1FeX-N9PkUPxnQgA0-77" style="edgeStyle=none;shape=connector;rounded=0;orthogonalLoop=1;jettySize=auto;html=1;exitX=1;exitY=0;exitDx=0;exitDy=0;entryX=0;entryY=0.5;entryDx=0;entryDy=0;labelBackgroundColor=default;strokeColor=default;align=center;verticalAlign=middle;fontFamily=Helvetica;fontSize=11;fontColor=default;endArrow=none;endFill=0;" edge="1" parent="1" source="nuA1FeX-N9PkUPxnQgA0-76" target="nuA1FeX-N9PkUPxnQgA0-65">
          <mxGeometry relative="1" as="geometry" />
        </mxCell>
        <mxCell id="nuA1FeX-N9PkUPxnQgA0-76" value="pertenece" style="shape=rhombus;perimeter=rhombusPerimeter;whiteSpace=wrap;html=1;align=center;fontFamily=Helvetica;fontSize=11;fontColor=default;" vertex="1" parent="1">
          <mxGeometry x="250" y="320" width="60" height="60" as="geometry" />
        </mxCell>
        <mxCell id="nuA1FeX-N9PkUPxnQgA0-78" style="edgeStyle=none;shape=connector;rounded=0;orthogonalLoop=1;jettySize=auto;html=1;exitX=0;exitY=1;exitDx=0;exitDy=0;entryX=0.9;entryY=0.05;entryDx=0;entryDy=0;entryPerimeter=0;labelBackgroundColor=default;strokeColor=default;align=center;verticalAlign=middle;fontFamily=Helvetica;fontSize=11;fontColor=default;endArrow=none;endFill=0;" edge="1" parent="1" source="nuA1FeX-N9PkUPxnQgA0-76" target="nuA1FeX-N9PkUPxnQgA0-51">
          <mxGeometry relative="1" as="geometry" />
        </mxCell>
        <mxCell id="nuA1FeX-N9PkUPxnQgA0-79" value="1" style="edgeLabel;html=1;align=center;verticalAlign=middle;resizable=0;points=[];fontSize=11;fontFamily=Helvetica;fontColor=default;" connectable="0" vertex="1" parent="nuA1FeX-N9PkUPxnQgA0-78">
          <mxGeometry x="0.001" y="-7" relative="1" as="geometry">
            <mxPoint y="1" as="offset" />
          </mxGeometry>
        </mxCell>
        <mxCell id="nuA1FeX-N9PkUPxnQgA0-80" value="N" style="text;html=1;align=center;verticalAlign=middle;resizable=0;points=[];autosize=1;strokeColor=none;fillColor=none;fontSize=11;fontFamily=Helvetica;fontColor=default;" vertex="1" parent="1">
          <mxGeometry x="315" y="298" width="30" height="30" as="geometry" />
        </mxCell>
        <mxCell id="nuA1FeX-N9PkUPxnQgA0-81" value="Ejercicio38. NTV" style="text;html=1;align=center;verticalAlign=middle;resizable=0;points=[];autosize=1;strokeColor=none;fillColor=none;fontSize=11;fontFamily=Helvetica;fontColor=default;" vertex="1" parent="1">
          <mxGeometry x="35" y="18" width="110" height="30" as="geometry" />
        </mxCell>
      </root>
    </mxGraphModel>
  </diagram>
</mxfile>
